<?xml version="1.0" encoding="UTF-8" standalone="no"?>
<!-- Created with Inkscape (http://www.inkscape.org/) -->

<svg
   width="500mm"
   height="500mm"
   viewBox="0 0 500 500"
   version="1.1"
   id="svg5"
   inkscape:version="1.2.2 (732a01da63, 2022-12-09)"
   sodipodi:docname="favicon.svg"
   xmlns:inkscape="http://www.inkscape.org/namespaces/inkscape"
   xmlns:sodipodi="http://sodipodi.sourceforge.net/DTD/sodipodi-0.dtd"
   xmlns:xlink="http://www.w3.org/1999/xlink"
   xmlns="http://www.w3.org/2000/svg"
   xmlns:svg="http://www.w3.org/2000/svg">
  <sodipodi:namedview
     id="namedview7"
     pagecolor="#ffffff"
     bordercolor="#666666"
     borderopacity="1.0"
     inkscape:showpageshadow="2"
     inkscape:pageopacity="0.0"
     inkscape:pagecheckerboard="0"
     inkscape:deskcolor="#d1d1d1"
     inkscape:document-units="mm"
     showgrid="false"
     inkscape:zoom="0.36257716"
     inkscape:cx="242.70696"
     inkscape:cy="864.64354"
     inkscape:window-width="1920"
     inkscape:window-height="1001"
     inkscape:window-x="-9"
     inkscape:window-y="-9"
     inkscape:window-maximized="1"
     inkscape:current-layer="layer1" />
  <defs
     id="defs2">
    <linearGradient
       inkscape:collect="always"
       id="linearGradient17456">
      <stop
         style="stop-color:#e762e3;stop-opacity:0.86574072;"
         offset="0"
         id="stop17452" />
      <stop
         style="stop-color:#f271ee;stop-opacity:0.5787037;"
         offset="1"
         id="stop17454" />
    </linearGradient>
    <linearGradient
       inkscape:collect="always"
       id="linearGradient15994">
      <stop
         style="stop-color:#ff68fa;stop-opacity:0.9074074;"
         offset="0"
         id="stop15990" />
      <stop
         style="stop-color:#e735e1;stop-opacity:0.36574075;"
         offset="1"
         id="stop15992" />
    </linearGradient>
    <linearGradient
       inkscape:collect="always"
       id="linearGradient9774">
      <stop
         style="stop-color:#84009c;stop-opacity:0.93518519;"
         offset="0"
         id="stop9770" />
      <stop
         style="stop-color:#b900da;stop-opacity:0.81018519;"
         offset="1"
         id="stop9772" />
    </linearGradient>
    <linearGradient
       inkscape:collect="always"
       id="linearGradient9038">
      <stop
         style="stop-color:#a100cf;stop-opacity:1;"
         offset="0"
         id="stop9034" />
      <stop
         style="stop-color:#c500b4;stop-opacity:0.4675926;"
         offset="1"
         id="stop9036" />
    </linearGradient>
    <inkscape:path-effect
       effect="skeletal"
       id="path-effect1939"
       is_visible="true"
       lpeversion="1"
       pattern="M 0,4.9921382 C 0,2.2364779 2.2364779,0 4.9921382,0 c 2.7556604,0 4.9921383,2.2364779 4.9921383,4.9921382 0,2.7556604 -2.2364779,4.9921383 -4.9921383,4.9921383 C 2.2364779,9.9842765 0,7.7477986 0,4.9921382 Z"
       copytype="single_stretched"
       prop_scale="0.48089217"
       scale_y_rel="false"
       spacing="0"
       normal_offset="0"
       tang_offset="0"
       prop_units="false"
       vertical_pattern="false"
       hide_knot="false"
       fuse_tolerance="0" />
    <inkscape:path-effect
       effect="skeletal"
       id="path-effect1935"
       is_visible="true"
       lpeversion="1"
       pattern="M 0,4.9921382 C 0,2.2364779 2.2364779,0 4.9921382,0 c 2.7556604,0 4.9921383,2.2364779 4.9921383,4.9921382 0,2.7556604 -2.2364779,4.9921383 -4.9921383,4.9921383 C 2.2364779,9.9842765 0,7.7477986 0,4.9921382 Z"
       copytype="single_stretched"
       prop_scale="0.48089217"
       scale_y_rel="false"
       spacing="0"
       normal_offset="0"
       tang_offset="0"
       prop_units="false"
       vertical_pattern="false"
       hide_knot="false"
       fuse_tolerance="0" />
    <inkscape:path-effect
       effect="skeletal"
       id="path-effect1822"
       is_visible="true"
       lpeversion="1"
       pattern="M 0,4.9921382 C 0,2.2364779 2.2364779,0 4.9921382,0 c 2.7556604,0 4.9921383,2.2364779 4.9921383,4.9921382 0,2.7556604 -2.2364779,4.9921383 -4.9921383,4.9921383 C 2.2364779,9.9842765 0,7.7477986 0,4.9921382 Z"
       copytype="single_stretched"
       prop_scale="0.48089217"
       scale_y_rel="false"
       spacing="0"
       normal_offset="0"
       tang_offset="0"
       prop_units="false"
       vertical_pattern="false"
       hide_knot="false"
       fuse_tolerance="0" />
    <linearGradient
       inkscape:collect="always"
       xlink:href="#linearGradient9038"
       id="linearGradient9040"
       x1="318.47836"
       y1="400.21774"
       x2="334.27945"
       y2="154.06323"
       gradientUnits="userSpaceOnUse"
       gradientTransform="matrix(0.27644418,0,0,0.27915985,-3.0311952,-4.6332475)" />
    <linearGradient
       inkscape:collect="always"
       xlink:href="#linearGradient9774"
       id="linearGradient9776"
       x1="351.69522"
       y1="661.07593"
       x2="282.51199"
       y2="343.89377"
       gradientUnits="userSpaceOnUse"
       gradientTransform="matrix(0.27780104,0,0,0.27377457,-4.0940871,-5.8536132)" />
    <linearGradient
       inkscape:collect="always"
       xlink:href="#linearGradient15994"
       id="linearGradient15996"
       x1="471.73465"
       y1="564.64117"
       x2="287.32245"
       y2="232.29811"
       gradientUnits="userSpaceOnUse"
       gradientTransform="matrix(0.28029413,0.00291214,-0.00284235,0.27357692,-5.0278837,-6.2607585)" />
    <linearGradient
       inkscape:collect="always"
       xlink:href="#linearGradient17456"
       id="linearGradient17458"
       x1="228.4357"
       y1="452.63843"
       x2="165.61394"
       y2="275.48126"
       gradientUnits="userSpaceOnUse"
       gradientTransform="matrix(0.28062487,0,0,0.27290643,-3.2298986,-3.6297082)" />
    <inkscape:path-effect
       effect="skeletal"
       id="path-effect1822-0"
       is_visible="true"
       lpeversion="1"
       pattern="M 0,4.9921382 C 0,2.2364779 2.2364779,0 4.9921382,0 c 2.7556604,0 4.9921383,2.2364779 4.9921383,4.9921382 0,2.7556604 -2.2364779,4.9921383 -4.9921383,4.9921383 C 2.2364779,9.9842765 0,7.7477986 0,4.9921382 Z"
       copytype="single_stretched"
       prop_scale="0.48089217"
       scale_y_rel="false"
       spacing="0"
       normal_offset="0"
       tang_offset="0"
       prop_units="false"
       vertical_pattern="false"
       hide_knot="false"
       fuse_tolerance="0" />
    <inkscape:path-effect
       effect="skeletal"
       id="path-effect1935-0"
       is_visible="true"
       lpeversion="1"
       pattern="M 0,4.9921382 C 0,2.2364779 2.2364779,0 4.9921382,0 c 2.7556604,0 4.9921383,2.2364779 4.9921383,4.9921382 0,2.7556604 -2.2364779,4.9921383 -4.9921383,4.9921383 C 2.2364779,9.9842765 0,7.7477986 0,4.9921382 Z"
       copytype="single_stretched"
       prop_scale="0.48089217"
       scale_y_rel="false"
       spacing="0"
       normal_offset="0"
       tang_offset="0"
       prop_units="false"
       vertical_pattern="false"
       hide_knot="false"
       fuse_tolerance="0" />
    <inkscape:path-effect
       effect="skeletal"
       id="path-effect1939-7"
       is_visible="true"
       lpeversion="1"
       pattern="M 0,4.9921382 C 0,2.2364779 2.2364779,0 4.9921382,0 c 2.7556604,0 4.9921383,2.2364779 4.9921383,4.9921382 0,2.7556604 -2.2364779,4.9921383 -4.9921383,4.9921383 C 2.2364779,9.9842765 0,7.7477986 0,4.9921382 Z"
       copytype="single_stretched"
       prop_scale="0.48089217"
       scale_y_rel="false"
       spacing="0"
       normal_offset="0"
       tang_offset="0"
       prop_units="false"
       vertical_pattern="false"
       hide_knot="false"
       fuse_tolerance="0" />
    <inkscape:path-effect
       effect="skeletal"
       id="path-effect1822-00"
       is_visible="true"
       lpeversion="1"
       pattern="M 0,4.9921382 C 0,2.2364779 2.2364779,0 4.9921382,0 c 2.7556604,0 4.9921383,2.2364779 4.9921383,4.9921382 0,2.7556604 -2.2364779,4.9921383 -4.9921383,4.9921383 C 2.2364779,9.9842765 0,7.7477986 0,4.9921382 Z"
       copytype="single_stretched"
       prop_scale="0.48089217"
       scale_y_rel="false"
       spacing="0"
       normal_offset="0"
       tang_offset="0"
       prop_units="false"
       vertical_pattern="false"
       hide_knot="false"
       fuse_tolerance="0" />
    <inkscape:path-effect
       effect="skeletal"
       id="path-effect1935-2"
       is_visible="true"
       lpeversion="1"
       pattern="M 0,4.9921382 C 0,2.2364779 2.2364779,0 4.9921382,0 c 2.7556604,0 4.9921383,2.2364779 4.9921383,4.9921382 0,2.7556604 -2.2364779,4.9921383 -4.9921383,4.9921383 C 2.2364779,9.9842765 0,7.7477986 0,4.9921382 Z"
       copytype="single_stretched"
       prop_scale="0.48089217"
       scale_y_rel="false"
       spacing="0"
       normal_offset="0"
       tang_offset="0"
       prop_units="false"
       vertical_pattern="false"
       hide_knot="false"
       fuse_tolerance="0" />
    <inkscape:path-effect
       effect="skeletal"
       id="path-effect1939-4"
       is_visible="true"
       lpeversion="1"
       pattern="M 0,4.9921382 C 0,2.2364779 2.2364779,0 4.9921382,0 c 2.7556604,0 4.9921383,2.2364779 4.9921383,4.9921382 0,2.7556604 -2.2364779,4.9921383 -4.9921383,4.9921383 C 2.2364779,9.9842765 0,7.7477986 0,4.9921382 Z"
       copytype="single_stretched"
       prop_scale="0.48089217"
       scale_y_rel="false"
       spacing="0"
       normal_offset="0"
       tang_offset="0"
       prop_units="false"
       vertical_pattern="false"
       hide_knot="false"
       fuse_tolerance="0" />
  </defs>
  <g
     inkscape:label="Слой 1"
     inkscape:groupmode="layer"
     id="layer1"
     style="display:inline">
    <g
       id="g363"
       transform="matrix(1.1232595,0,0,0.9999982,-6.9025329,9.766828e-5)">
      <g
         id="g18251"
         transform="matrix(3.1916992,0,0,3.0410132,-30.484289,-105.27968)"
         style="display:inline">
        <g
           id="g3411"
           transform="translate(0.25799842,3.8699763)">
          <g
             id="g3214"
             transform="translate(0.36486487)">
            <ellipse
               style="fill:none;stroke:#000000;stroke-width:4.93377;stroke-linecap:round"
               id="path113"
               cx="140.19377"
               cy="-7.5628147"
               rx="69.684807"
               ry="42.684807"
               transform="rotate(58.034846)" />
            <g
               id="g3208">
              <rect
                 style="fill:#000000;fill-opacity:1;stroke:none;stroke-width:2.46331;stroke-linecap:round"
                 id="rect342"
                 width="85.661934"
                 height="3.8560719"
                 x="-43.156555"
                 y="137.26128"
                 ry="1.928036"
                 rx="0"
                 transform="matrix(0.81512712,-0.57928213,0.57466269,0.81839037,0,0)" />
              <rect
                 style="fill:#000000;fill-opacity:1;stroke:none;stroke-width:1.66524;stroke-linecap:round;stroke-dasharray:none"
                 id="rect342-1"
                 width="142.0092"
                 height="4.1859264"
                 x="69.669937"
                 y="-5.8687811"
                 ry="2.0929632"
                 rx="0"
                 transform="matrix(0.56270657,0.82665671,-0.82891694,0.55937171,0,0)" />
            </g>
          </g>
          <g
             id="g3397">
            <g
               id="g3389">
              <rect
                 style="fill:#000000;fill-opacity:1;stroke-width:0.482674;stroke-linecap:round"
                 id="rect3268"
                 width="25.025848"
                 height="7.2239552"
                 x="-19.932293"
                 y="135.73396"
                 ry="3.6119776"
                 rx="3.9864693"
                 transform="rotate(-34.740128)" />
              <rect
                 style="fill:#000000;fill-opacity:1;stroke-width:0.482674;stroke-linecap:round"
                 id="rect3268-3"
                 width="25.025848"
                 height="7.2239552"
                 x="-0.17836988"
                 y="135.54558"
                 ry="3.6119776"
                 rx="3.9864693"
                 transform="rotate(-34.740128)" />
            </g>
            <g
               id="g3385">
              <rect
                 style="fill:#000000;fill-opacity:1;stroke-width:0.550663;stroke-linecap:round"
                 id="rect3268-3-0"
                 width="32.572136"
                 height="7.224061"
                 x="137.99832"
                 y="-9.2252598"
                 ry="3.6120305"
                 rx="5.1885481"
                 transform="matrix(0.55576198,0.83134146,-0.82941103,0.55863884,0,0)" />
              <rect
                 style="fill:#000000;fill-opacity:1;stroke-width:0.550663;stroke-linecap:round"
                 id="rect3268-3-0-2"
                 width="32.572136"
                 height="7.224061"
                 x="106.87568"
                 y="-6.9355407"
                 ry="3.6120305"
                 rx="5.1885481"
                 transform="matrix(0.57051624,0.82128632,-0.81930483,0.57335817,0,0)" />
            </g>
          </g>
        </g>
        <path
           style="fill:url(#linearGradient9040);fill-opacity:1;stroke-width:1.44791;stroke-linecap:round"
           d="M 83.812106,112.38014 C 83.515271,111.59901 69.634835,91.675499 68.915421,90.997953 68.205212,90.329066 67.231647,89.816576 66.041613,89.485146 65.923836,89.452346 61.812534,83.463638 56.905387,76.17691 51.998237,68.890179 47.522459,62.260634 46.959212,61.444589 l -1.024087,-1.483724 1.10631,-0.563476 c 1.607421,-0.818703 4.183586,-1.697934 6.407496,-2.186846 2.797756,-0.615066 8.907933,-0.622549 12.234991,-0.01499 9.549777,1.743929 19.530939,6.798588 29.163421,14.768946 6.010627,4.973461 12.935737,12.467754 17.834757,19.300599 1.3144,1.833234 1.44371,2.088076 1.16203,2.290024 -0.17432,0.12498 -3.40484,2.450769 -7.17893,5.16842 -6.679689,4.809908 -6.882201,4.938598 -7.623033,4.843858 -1.712646,-0.21901 -2.214663,0.0468 -8.849033,4.68542 -4.354197,3.04434 -6.311478,4.31034 -6.381028,4.12731 z"
           id="path9032" />
        <path
           style="fill:url(#linearGradient9776);fill-opacity:1;stroke-width:1.43737;stroke-linecap:round"
           d="m 101.83092,179.87773 c -7.9426,-0.63809 -15.398001,-3.1612 -23.625214,-7.99544 -9.958159,-5.85131 -19.919593,-15.11618 -28.120021,-26.1537 -1.58163,-2.12883 -2.735487,-3.85506 -2.635009,-3.94213 0.0423,-0.0367 3.860178,-2.7112 8.484159,-5.94341 l 8.407238,-5.87675 h 1.03256 c 0.56791,0 1.328299,-0.12177 1.68975,-0.27061 0.361451,-0.14883 3.310888,-2.08624 6.554303,-4.30534 3.243415,-2.21911 6.304373,-4.30855 6.802131,-4.6432 l 0.905013,-0.60846 6.681661,9.87454 c 6.887341,10.17851 7.811549,11.35427 9.307418,11.8408 0.571384,0.18585 1.870566,1.98867 11.741931,16.29389 6.1047,8.8467 11.15713,16.18359 11.22759,16.3042 0.076,0.13006 -0.25218,0.49442 -0.80661,0.89551 -2.49821,1.80728 -7.02439,3.5853 -10.55969,4.14817 -1.89547,0.30178 -5.59989,0.50142 -7.08721,0.38193 z"
           id="path9768" />
        <path
           style="fill:url(#linearGradient15996);fill-opacity:1;stroke-width:1.44337;stroke-linecap:round"
           d="m 111.44116,156.43806 -10.8175,-15.86399 -0.10437,-1.37895 c -0.0573,-0.75845 -0.28379,-1.7861 -0.50311,-2.28368 -0.219304,-0.49759 -3.406088,-5.3935 -7.081733,-10.8798 -3.675648,-5.48629 -6.653393,-9.99886 -6.617208,-10.02791 0.03619,-0.029 2.944691,-1.95797 6.463345,-4.2865 6.790893,-4.49398 7.324146,-4.95413 7.627586,-6.58186 0.12311,-0.66043 0.4479,-0.90799 7.24488,-5.522477 3.91379,-2.657089 7.21807,-4.887369 7.34288,-4.956175 0.24619,-0.135732 3.04658,4.407599 5.04641,8.187242 9.4138,17.79197 13.36658,36.84567 10.67046,51.43517 -1.00123,5.41801 -2.72378,10.02592 -5.18214,13.8625 -0.7265,1.1338 -3.06511,4.16259 -3.21286,4.16106 -0.0325,-3.4e-4 -4.92704,-7.13941 -10.87664,-15.86463 z"
           id="path9778" />
        <path
           style="fill:url(#linearGradient17458);fill-opacity:1;stroke-width:1.44237;stroke-linecap:round"
           d="m 45.829686,139.13278 c -2.71002,-4.3182 -6.18344,-11.1163 -8.197861,-16.04466 -3.243796,-7.93611 -5.352026,-15.7949 -6.356251,-23.694054 -0.457408,-3.59792 -0.456705,-11.655411 0.0013,-14.86553 1.250152,-8.762321 4.409926,-15.762465 9.313434,-20.632921 0.97427,-0.967702 1.853084,-1.756219 1.952916,-1.752257 0.09983,0.004 4.747619,6.540356 10.328408,14.525315 9.911968,14.181987 10.152655,14.547746 10.395771,15.798122 0.136883,0.704006 0.427641,1.62078 0.646133,2.037274 0.442739,0.843974 13.930555,19.794211 14.56269,20.460431 0.22056,0.23245 0.3644,0.45369 0.319634,0.49165 -0.04475,0.0379 -3.128902,2.1176 -6.853644,4.62142 -3.724745,2.50382 -7.134558,4.91581 -7.577365,5.35999 -0.760664,0.76302 -1.223033,1.77054 -1.225496,2.67042 -8.43e-4,0.30441 -1.862194,1.67833 -8.176169,6.03503 -4.496298,3.10249 -8.266277,5.69268 -8.377732,5.756 -0.111456,0.0633 -0.451548,-0.28149 -0.755762,-0.76623 z"
           id="path17450" />
      </g>
      <g
         id="g1944"
         transform="matrix(2.9221128,-0.2483816,0.23848513,2.7839733,189.10155,-100.01956)"
         style="display:inline">
        <g
           id="g2421"
           transform="translate(-78.728788,14.59237)">
          <path
             style="fill:#000000;stroke:none;stroke-width:0.264583px;stroke-linecap:butt;stroke-linejoin:miter;stroke-opacity:1"
             d="m 167.72875,24.918654 c -0.0542,0.158107 -0.84468,0.305763 -2.19941,0.351964 0,0 0,0 0,0 -0.58454,0.02892 -2.62239,0.109048 -3.78642,0.155822 -2.74652,0.111379 -6.32961,0.265134 -10.5263,0.683132 -4.31186,0.321779 -8.92258,1.537107 -14.00516,3.775775 -3.64682,1.632225 -7.40562,3.702904 -10.65779,6.443391 -0.1241,0.104573 -0.24718,0.209888 -0.36925,0.315955 -5.14206,4.380967 -8.66433,10.778647 -11.33757,16.063342 l 0,0 c -2.51353,5.026204 -4.41599,9.646251 -6.0622,13.219794 l 0,0 c -1.1415,2.478146 -2.09597,4.453991 -2.85265,5.849634 l 0,0 c -0.41147,0.758935 -0.76114,1.33993 -1.04285,1.724722 l 0,0 c -0.14576,0.199099 -0.27342,0.345792 -0.38205,0.437567 l 0,0 c 0,0 0,10e-7 0,10e-7 -0.0551,0.04656 -0.1054,0.079 -0.15065,0.097 l 0,0 c 0,0 0,0 0,0 -0.0574,-0.0034 -0.0886,-0.0015 -0.10548,0.0014 -0.0164,0.0028 -0.0192,0.0067 -0.0196,0.0073 0,0 0,0 0,0 0,0 0,0 0,0 0,0 0,0 0,0 0,0 0,0 0,0 0,0 0,0 0,0 0,0 0,0 0,0 0,0 0,0 0,0 0,0 0,0 0,0 0,0 0,0 0,0 0,0 0,0 0,0 -3e-5,5.7e-5 -3e-5,4.4e-5 -3e-5,4.4e-5 0,0 -10e-6,1.2e-5 1e-5,-5.1e-5 0,0 0,0 0,0 0,0 0,0 0,0 0,0 0,0 0,0 0,0 0,0 0,0 0,0 0,0 0,0 0,0 0,0 0,0 0,0 0,0 0,0 0,0 0,0 0,0 0,0 0,0 0,0 0,0 0,0 0,0 1.4e-4,-7.4e-4 4.3e-4,-0.0055 -0.0104,-0.01814 -0.0111,-0.01301 -0.0339,-0.03437 -0.0803,-0.06839 0,0 0,-10e-7 0,-10e-7 l 0,0 c -0.0233,-0.04279 -0.0412,-0.09994 -0.0538,-0.171158 0,0 0,-10e-7 0,-10e-7 l 0,0 c -0.0247,-0.140255 -0.0287,-0.334914 -0.0126,-0.5816 l 0,0 c 0.0312,-0.476882 0.13771,-1.147646 0.3157,-1.994742 l 0,0 c 0.32482,-1.545835 0.89187,-3.697194 1.67828,-6.311522 l 0,0 c 1.03837,-3.458225 2.74125,-8.864043 4.93644,-13.973175 l 0,0 c 2.40893,-5.679423 6.03184,-12.641554 12.03731,-17.911878 0.14095,-0.121626 0.28289,-0.242238 0.42582,-0.361842 3.75594,-3.142897 7.94276,-5.378829 11.94875,-6.995401 5.54533,-2.273572 10.81584,-3.304432 15.63937,-3.266882 4.35335,-0.05545 8.03556,0.24867 10.81315,0.652371 1.59568,0.231182 2.84207,0.487338 3.83217,0.77064 0,0 0,0 0,0 1.40832,0.399507 2.12946,0.807378 2.02745,1.104889 z"
             id="path1820"
             inkscape:path-effect="#path-effect1822"
             inkscape:original-d="m 167.72875,24.918654 c -1.46107,-0.500981 -8.80205,-1.099846 -16.59245,-0.668491 -9.96672,0.309298 -20.7183,5.55437 -26.52307,10.579623 -5.07091,4.389945 -9.00675,11.205526 -11.68744,16.98761 -3.08671,6.657864 -8.69443,22.228149 -8.69443,22.228149"
             class="UnoptimicedTransforms"
             sodipodi:nodetypes="ccssc"
             transform="translate(-18.156016,27.475259)" />
          <path
             style="fill:#000000;stroke:none;stroke-width:0.264583px;stroke-linecap:butt;stroke-linejoin:miter;stroke-opacity:1"
             d="m 149.77706,100.15533 c -0.677,-0.385523 -0.24209,-2.545653 0.99922,-5.611389 0.86231,-1.983959 2.48394,-5.082178 5.66524,-7.192209 0.11143,-0.0739 0.22426,-0.146267 0.33852,-0.217043 3.39713,-1.828947 6.88796,-1.681337 8.98522,-1.439821 l 0,0 c 1.53635,0.132763 2.80124,0.402902 3.68416,0.717648 l 0,0 c 0.47747,0.170116 0.8489,0.354472 1.10178,0.54519 l 0,0 0,0 c 0.13102,0.09805 0.22979,0.19716 0.29505,0.297101 l 0,0 c 0,0 0,10e-7 0,10e-7 0.0271,0.148809 0.0496,0.227189 0.0658,0.268334 0.0158,0.04014 0.0257,0.04407 0.0271,0.0444 0,0 0,0 0,0 0,0 0,0 0,0 0,0 0,0 0,0 1.1e-4,2.4e-5 9e-5,2.6e-5 9e-5,2.6e-5 0,0 2e-5,3e-6 -9e-5,1.5e-5 0,0 0,0 0,0 0,0 0,0 0,0 0,0 0,0 0,0 -0.001,1.61e-4 -0.0117,0.0029 -0.0318,0.04108 -0.0206,0.03911 -0.0516,0.114659 -0.0947,0.259904 0,0 0,0 0,0 l 0,0 c -0.0733,0.09262 -0.17746,0.182708 -0.30971,0.26969 l 0,0 0,0 c -0.25949,0.169148 -0.6298,0.329076 -1.09359,0.481611 l 0,0 c -0.87255,0.287 -2.04562,0.541744 -3.45727,0.823007 l 0,0 c -1.99521,0.43485 -5.14272,0.76942 -6.7591,1.841353 -0.0675,0.03493 -0.13465,0.07155 -0.20142,0.109849 -1.716,0.984304 -3.57534,3.575972 -4.94512,5.120877 -1.95917,2.556618 -3.59327,4.025367 -4.26932,3.640377 z"
             id="path1933"
             inkscape:path-effect="#path-effect1935"
             inkscape:original-d="m 149.77702,100.15541 c 0,0 4.26675,-8.65334 8.20946,-10.945952 3.7623,-2.187707 12.95271,-1.64189 12.95271,-1.64189"
             class="UnoptimicedTransforms"
             sodipodi:nodetypes="csc"
             transform="translate(-63.85534,1.4558319)" />
          <path
             style="fill:#000000;stroke:none;stroke-width:0.264583px;stroke-linecap:butt;stroke-linejoin:miter;stroke-opacity:1"
             d="m 171.12158,94.864751 c -0.0472,0.01743 -0.0954,0.02697 -0.14711,0.02978 -0.0474,0.0024 -0.0967,-0.0012 -0.14786,-0.01071 -0.10114,-0.01879 -0.20995,-0.06056 -0.32536,-0.123793 l 0,-10e-7 0,0 c -0.22523,-0.122599 -0.47855,-0.326757 -0.75537,-0.59986 l 0,0 c -0.52739,-0.520223 -1.13897,-1.283797 -1.8436,-2.20884 l 0,0 c -1.09772,-1.419359 -2.67558,-3.738926 -4.30147,-5.094247 -0.11601,-0.111172 -0.2511,-0.217074 -0.40443,-0.321227 -0.51131,-0.347325 -1.26456,-0.692983 -2.00996,-1.076386 -1.2889,-0.627124 -2.56147,-1.174536 -3.69879,-1.702727 -2.89347,-1.200229 -4.73127,-2.418706 -4.56678,-3.208637 0,0 0,-10e-7 0,-10e-7 0,0 0,0 0,0 0,0 0,0 0,0 0,0 0,-10e-7 0,-10e-7 0,0 0,0 0,0 0,0 0,-10e-7 0,-10e-7 0,0 0,0 0,0 0,0 0,0 0,0 0,-10e-7 0,-2e-6 0,-2e-6 0,0 0,-1e-6 0,-1e-6 0,0 0,-10e-7 0,-10e-7 0,-10e-7 0,-10e-7 0,-2e-6 0,0 0,0 0,0 0,0 0,-10e-7 0,-10e-7 0.003,-0.01326 0.003,-0.01304 0.003,-0.01281 -6e-5,2.35e-4 -1.4e-4,4.41e-4 0.003,-0.01277 0,0 0,0 0,-10e-7 0,0 0,0 0,0 0,0 0,-10e-7 0,-10e-7 0,0 0,-2e-6 0,-2e-6 0,0 0,-10e-7 0,-10e-7 0,0 0,-10e-7 0,-10e-7 0,-10e-7 0,-10e-7 0,-10e-7 0,0 0,0 0,0 0,0 0,0 0,0 0,0 0,-10e-7 0,-10e-7 0,0 0,0 0,0 0,0 0,-1e-6 0,-1e-6 0,0 0,0 0,0 0,0 0,-10e-7 0,-10e-7 0.20818,-0.780578 2.38931,-0.946547 5.62524,-0.549842 1.30973,0.212595 2.85175,0.575616 4.46068,1.177069 0.86527,0.298054 1.88026,0.738264 2.90323,1.45173 0.29707,0.207188 0.59042,0.434373 0.87758,0.683572 2.48167,2.324147 3.70275,5.117766 4.28312,7.061307 l 0,0 c 0.37791,1.215438 0.55149,2.259006 0.56045,3.030554 l 0,0 c 0.005,0.408686 -0.0356,0.743383 -0.11898,0.993859 l 0,0 0,0 c -0.0427,0.127282 -0.0961,0.232468 -0.16027,0.314523 -0.0324,0.04138 -0.0674,0.07676 -0.10504,0.106053 -0.0412,0.03182 -0.0842,0.05599 -0.13135,0.07343 z"
             id="path1937"
             inkscape:path-effect="#path-effect1939"
             inkscape:original-d="m 171.12162,94.864863 c 0,0 -2.35772,-6.605768 -5.92439,-9.793811 -2.81248,-2.513907 -12.27343,-4.535771 -12.27343,-4.535771"
             class="UnoptimicedTransforms"
             sodipodi:nodetypes="csc"
             transform="rotate(38.341282,118.85439,-24.167302)" />
        </g>
      </g>
    </g>
  </g>
</svg>
